<svg width="32" height="32" viewBox="0 0 32 32" fill="none" xmlns="http://www.w3.org/2000/svg">
<rect y="16.9076" width="15.2588" height="11.2908" rx="1.29076" fill="black"/>
<path d="M3.38693 26.1983V23.2451H6.5054V22.1298H3.38693V20.075H6.81518V18.9701H2.1478V26.1983H3.38693ZM10.5802 26.3016C12.3769 26.3016 13.3062 24.8353 13.3062 22.5842C13.3062 20.3331 12.3769 18.8668 10.5802 18.8668C8.78342 18.8668 7.85407 20.3331 7.85407 22.5842C7.85407 24.8353 8.78342 26.3016 10.5802 26.3016ZM10.5698 25.1967C9.55787 25.1967 9.0932 24.2157 9.0932 22.5842C9.0932 20.9527 9.55787 19.9717 10.5698 19.9717H10.5905C11.6024 19.9717 12.0671 20.9527 12.0671 22.5842C12.0671 24.2157 11.6024 25.1967 10.5905 25.1967H10.5698Z" fill="white"/>
<rect x="16.4571" y="16.9076" width="15.2588" height="11.2908" rx="1.29076" fill="black"/>
<path d="M20.8457 22.9456L19.7305 18.9701H18.2848V26.1983H19.4207V21.2315L20.2778 24.288H21.4033L22.2707 21.2211V26.1983H23.4066V18.9701H21.9609L20.8457 22.9456ZM27.0373 26.3016C28.834 26.3016 29.7634 24.8353 29.7634 22.5842C29.7634 20.3331 28.834 18.8668 27.0373 18.8668C25.2406 18.8668 24.3112 20.3331 24.3112 22.5842C24.3112 24.8353 25.2406 26.3016 27.0373 26.3016ZM27.027 25.1967C26.015 25.1967 25.5504 24.2157 25.5504 22.5842C25.5504 20.9527 26.015 19.9717 27.027 19.9717H27.0476C28.0596 19.9717 28.5243 20.9527 28.5243 22.5842C28.5243 24.2157 28.0596 25.1967 27.0476 25.1967H27.027Z" fill="white"/>
<rect y="4" width="15.2588" height="11.2908" rx="1.29076" fill="black"/>
<path d="M5.67931 11.1429L3.31465 6.06252H1.88965V13.2908H3.0978V8.14838L5.50377 13.2908H6.88746V6.06252H5.67931V11.1429ZM10.5802 13.394C12.3769 13.394 13.3062 11.9277 13.3062 9.67664C13.3062 7.42556 12.3769 5.95926 10.5802 5.95926C8.78342 5.95926 7.85407 7.42556 7.85407 9.67664C7.85407 11.9277 8.78342 13.394 10.5802 13.394ZM10.5698 12.2891C9.55787 12.2891 9.0932 11.3082 9.0932 9.67664C9.0932 8.04512 9.55787 7.06415 10.5698 7.06415H10.5905C11.6024 7.06415 12.0671 8.04512 12.0671 9.67664C12.0671 11.3082 11.6024 12.2891 10.5905 12.2891H10.5698Z" fill="white"/>
<rect x="16.4571" y="4" width="15.2588" height="11.2908" rx="1.29076" fill="black"/>
<path d="M20.8457 10.0381L19.7305 6.06252H18.2848V13.2908H19.4207V8.32393L20.2778 11.3804H21.4033L22.2707 8.3136V13.2908H23.4066V6.06252H21.9609L20.8457 10.0381ZM27.0373 13.394C28.834 13.394 29.7634 11.9277 29.7634 9.67664C29.7634 7.42556 28.834 5.95926 27.0373 5.95926C25.2406 5.95926 24.3112 7.42556 24.3112 9.67664C24.3112 11.9277 25.2406 13.394 27.0373 13.394ZM27.027 12.2891C26.015 12.2891 25.5504 11.3082 25.5504 9.67664C25.5504 8.04512 26.015 7.06415 27.027 7.06415H27.0476C28.0596 7.06415 28.5243 8.04512 28.5243 9.67664C28.5243 11.3082 28.0596 12.2891 27.0476 12.2891H27.027Z" fill="white"/>
</svg>
