<svg width="408" height="180" viewBox="0 0 408 180" fill="none" xmlns="http://www.w3.org/2000/svg">
<g opacity="0.8" filter="url(#filter0_ddd_3_70)">
<rect x="52" y="52" width="304" height="80" rx="12" fill="white" shape-rendering="crispEdges"/>
<circle cx="92" cy="92" r="28" fill="#E9E9E9"/>
<rect x="137" y="68" width="67" height="8" rx="2" fill="#E9E9E9"/>
<rect x="137" y="92" width="230" height="8" rx="2" fill="#E9E9E9"/>
<rect x="137" y="108" width="133" height="8" rx="2" fill="#E9E9E9"/>
</g>
<g filter="url(#filter1_ddd_3_70)">
<rect x="40" y="32" width="328" height="80" rx="12" fill="white" shape-rendering="crispEdges"/>
<circle cx="80" cy="72" r="28" fill="#E9E9E9"/>
<rect x="125" y="48" width="67" height="8" rx="2" fill="#E9E9E9"/>
<rect x="125" y="72" width="230" height="8" rx="2" fill="#E9E9E9"/>
<rect x="125" y="88" width="133" height="8" rx="2" fill="#E9E9E9"/>
</g>
<g filter="url(#filter2_ddd_3_70)">
<rect x="24" y="8" width="360" height="80" rx="12" fill="white" shape-rendering="crispEdges"/>
<circle cx="64" cy="48" r="28" fill="#F4ECFF"/>
<path d="M77.9086 46.5727L74.409 40.0729C74.2833 39.8444 74.0535 39.682 73.7801 39.6363L64.1562 38.0115C64.0523 37.9962 63.9484 37.9962 63.8445 38.0115L54.2205 39.6363C53.9472 39.682 53.7174 39.8444 53.5917 40.0729L50.092 46.5727C49.9279 46.8773 49.9881 47.2429 50.2342 47.4919L63.3576 60.4911C63.5217 60.6535 63.7513 60.75 63.9974 60.75C64.238 60.75 64.4676 60.6586 64.6372 60.4911L77.7606 47.4919C78.0122 47.2481 78.0724 46.8773 77.9083 46.5727H77.9086ZM68.8916 47.751L64.003 57.2415L59.1143 47.751H68.8916ZM65.9388 39.9668L72.3422 41.0483L70.0728 45.4508L65.9389 39.9668H65.9388ZM57.933 45.4508L55.6636 41.0483L62.067 39.9668L57.9331 45.4508H57.933ZM56.3364 46.1261H52.2953L54.3623 42.2873L56.3364 46.1261ZM71.6691 46.1261L73.6431 42.2873L75.7101 46.1261H71.6691Z" fill="#7000FF"/>
<rect x="109" y="24" width="82" height="8" rx="2" fill="#F4ECFF"/>
<rect x="109" y="48" width="195" height="8" rx="2" fill="#F4ECFF"/>
<rect x="109" y="64" width="56" height="8" rx="2" fill="#F4ECFF"/>
<rect x="337" y="24" width="31" height="8" rx="2" fill="#F4ECFF"/>
</g>
<defs>
<filter id="filter0_ddd_3_70" x="28" y="44" width="363" height="136" filterUnits="userSpaceOnUse" color-interpolation-filters="sRGB">
<feFlood flood-opacity="0" result="BackgroundImageFix"/>
<feColorMatrix in="SourceAlpha" type="matrix" values="0 0 0 0 0 0 0 0 0 0 0 0 0 0 0 0 0 0 127 0" result="hardAlpha"/>
<feOffset dy="24"/>
<feGaussianBlur stdDeviation="12"/>
<feComposite in2="hardAlpha" operator="out"/>
<feColorMatrix type="matrix" values="0 0 0 0 0.917647 0 0 0 0 0.917647 0 0 0 0 0.917647 0 0 0 0.48 0"/>
<feBlend mode="normal" in2="BackgroundImageFix" result="effect1_dropShadow_3_70"/>
<feColorMatrix in="SourceAlpha" type="matrix" values="0 0 0 0 0 0 0 0 0 0 0 0 0 0 0 0 0 0 127 0" result="hardAlpha"/>
<feOffset dy="8"/>
<feGaussianBlur stdDeviation="8"/>
<feComposite in2="hardAlpha" operator="out"/>
<feColorMatrix type="matrix" values="0 0 0 0 0.917647 0 0 0 0 0.917647 0 0 0 0 0.917647 0 0 0 0.48 0"/>
<feBlend mode="normal" in2="effect1_dropShadow_3_70" result="effect2_dropShadow_3_70"/>
<feColorMatrix in="SourceAlpha" type="matrix" values="0 0 0 0 0 0 0 0 0 0 0 0 0 0 0 0 0 0 127 0" result="hardAlpha"/>
<feOffset dy="1"/>
<feGaussianBlur stdDeviation="2"/>
<feComposite in2="hardAlpha" operator="out"/>
<feColorMatrix type="matrix" values="0 0 0 0 0.916856 0 0 0 0 0.916856 0 0 0 0 0.916856 0 0 0 0.48 0"/>
<feBlend mode="normal" in2="effect2_dropShadow_3_70" result="effect3_dropShadow_3_70"/>
<feBlend mode="normal" in="SourceGraphic" in2="effect3_dropShadow_3_70" result="shape"/>
</filter>
<filter id="filter1_ddd_3_70" x="16" y="24" width="376" height="136" filterUnits="userSpaceOnUse" color-interpolation-filters="sRGB">
<feFlood flood-opacity="0" result="BackgroundImageFix"/>
<feColorMatrix in="SourceAlpha" type="matrix" values="0 0 0 0 0 0 0 0 0 0 0 0 0 0 0 0 0 0 127 0" result="hardAlpha"/>
<feOffset dy="24"/>
<feGaussianBlur stdDeviation="12"/>
<feComposite in2="hardAlpha" operator="out"/>
<feColorMatrix type="matrix" values="0 0 0 0 0.917647 0 0 0 0 0.917647 0 0 0 0 0.917647 0 0 0 0.48 0"/>
<feBlend mode="normal" in2="BackgroundImageFix" result="effect1_dropShadow_3_70"/>
<feColorMatrix in="SourceAlpha" type="matrix" values="0 0 0 0 0 0 0 0 0 0 0 0 0 0 0 0 0 0 127 0" result="hardAlpha"/>
<feOffset dy="8"/>
<feGaussianBlur stdDeviation="8"/>
<feComposite in2="hardAlpha" operator="out"/>
<feColorMatrix type="matrix" values="0 0 0 0 0.917647 0 0 0 0 0.917647 0 0 0 0 0.917647 0 0 0 0.48 0"/>
<feBlend mode="normal" in2="effect1_dropShadow_3_70" result="effect2_dropShadow_3_70"/>
<feColorMatrix in="SourceAlpha" type="matrix" values="0 0 0 0 0 0 0 0 0 0 0 0 0 0 0 0 0 0 127 0" result="hardAlpha"/>
<feOffset dy="1"/>
<feGaussianBlur stdDeviation="2"/>
<feComposite in2="hardAlpha" operator="out"/>
<feColorMatrix type="matrix" values="0 0 0 0 0.916856 0 0 0 0 0.916856 0 0 0 0 0.916856 0 0 0 0.48 0"/>
<feBlend mode="normal" in2="effect2_dropShadow_3_70" result="effect3_dropShadow_3_70"/>
<feBlend mode="normal" in="SourceGraphic" in2="effect3_dropShadow_3_70" result="shape"/>
</filter>
<filter id="filter2_ddd_3_70" x="0" y="0" width="408" height="136" filterUnits="userSpaceOnUse" color-interpolation-filters="sRGB">
<feFlood flood-opacity="0" result="BackgroundImageFix"/>
<feColorMatrix in="SourceAlpha" type="matrix" values="0 0 0 0 0 0 0 0 0 0 0 0 0 0 0 0 0 0 127 0" result="hardAlpha"/>
<feOffset dy="24"/>
<feGaussianBlur stdDeviation="12"/>
<feComposite in2="hardAlpha" operator="out"/>
<feColorMatrix type="matrix" values="0 0 0 0 0.917647 0 0 0 0 0.917647 0 0 0 0 0.917647 0 0 0 0.64 0"/>
<feBlend mode="normal" in2="BackgroundImageFix" result="effect1_dropShadow_3_70"/>
<feColorMatrix in="SourceAlpha" type="matrix" values="0 0 0 0 0 0 0 0 0 0 0 0 0 0 0 0 0 0 127 0" result="hardAlpha"/>
<feOffset dy="8"/>
<feGaussianBlur stdDeviation="8"/>
<feComposite in2="hardAlpha" operator="out"/>
<feColorMatrix type="matrix" values="0 0 0 0 0.917647 0 0 0 0 0.917647 0 0 0 0 0.917647 0 0 0 0.64 0"/>
<feBlend mode="normal" in2="effect1_dropShadow_3_70" result="effect2_dropShadow_3_70"/>
<feColorMatrix in="SourceAlpha" type="matrix" values="0 0 0 0 0 0 0 0 0 0 0 0 0 0 0 0 0 0 127 0" result="hardAlpha"/>
<feOffset dy="1"/>
<feGaussianBlur stdDeviation="2"/>
<feComposite in2="hardAlpha" operator="out"/>
<feColorMatrix type="matrix" values="0 0 0 0 0.916856 0 0 0 0 0.916856 0 0 0 0 0.916856 0 0 0 0.64 0"/>
<feBlend mode="normal" in2="effect2_dropShadow_3_70" result="effect3_dropShadow_3_70"/>
<feBlend mode="normal" in="SourceGraphic" in2="effect3_dropShadow_3_70" result="shape"/>
</filter>
</defs>
</svg>
