<svg width="75" height="38" viewBox="0 0 75 38" fill="none" xmlns="http://www.w3.org/2000/svg">
<rect x="25.5" y="20" width="23.5" height="18" rx="2" fill="black"/>
<path d="M30.748 34V29.424H35.58V27.696H30.748V24.512H36.06V22.8H28.828V34H30.748ZM41.8938 34.16C44.6778 34.16 46.1178 31.888 46.1178 28.4C46.1178 24.912 44.6778 22.64 41.8938 22.64C39.1098 22.64 37.6698 24.912 37.6698 28.4C37.6698 31.888 39.1098 34.16 41.8938 34.16ZM41.8778 32.448C40.3098 32.448 39.5898 30.928 39.5898 28.4C39.5898 25.872 40.3098 24.352 41.8778 24.352H41.9098C43.4778 24.352 44.1978 25.872 44.1978 28.4C44.1978 30.928 43.4778 32.448 41.9098 32.448H41.8778Z" fill="white"/>
<rect x="51" y="20" width="23.5" height="18" rx="2" fill="black"/>
<path d="M57.8 28.96L56.072 22.8H53.832V34H55.592V26.304L56.92 31.04H58.664L60.008 26.288V34H61.768V22.8H59.528L57.8 28.96ZM67.3938 34.16C70.1778 34.16 71.6178 31.888 71.6178 28.4C71.6178 24.912 70.1778 22.64 67.3938 22.64C64.6098 22.64 63.1698 24.912 63.1698 28.4C63.1698 31.888 64.6098 34.16 67.3938 34.16ZM67.3778 32.448C65.8098 32.448 65.0898 30.928 65.0898 28.4C65.0898 25.872 65.8098 24.352 67.3778 24.352H67.4098C68.9778 24.352 69.6978 25.872 69.6978 28.4C69.6978 30.928 68.9778 32.448 67.4098 32.448H67.3778Z" fill="white"/>
<rect width="23.5" height="18" rx="2" fill="black"/>
<path d="M8.8 10.672L5.136 2.8H2.928V14H4.8V6.032L8.528 14H10.672V2.8H8.8V10.672ZM16.3938 14.16C19.1778 14.16 20.6178 11.888 20.6178 8.4C20.6178 4.912 19.1778 2.64 16.3938 2.64C13.6098 2.64 12.1698 4.912 12.1698 8.4C12.1698 11.888 13.6098 14.16 16.3938 14.16ZM16.3778 12.448C14.8098 12.448 14.0898 10.928 14.0898 8.4C14.0898 5.872 14.8098 4.352 16.3778 4.352H16.4098C17.9778 4.352 18.6978 5.872 18.6978 8.4C18.6978 10.928 17.9778 12.448 16.4098 12.448H16.3778Z" fill="white"/>
<rect x="25.5" width="23.5" height="18" rx="2" fill="black"/>
<path d="M32.3 8.96L30.572 2.8H28.332V14H30.092V6.304L31.42 11.04H33.164L34.508 6.288V14H36.268V2.8H34.028L32.3 8.96ZM41.8938 14.16C44.6778 14.16 46.1178 11.888 46.1178 8.4C46.1178 4.912 44.6778 2.64 41.8938 2.64C39.1098 2.64 37.6698 4.912 37.6698 8.4C37.6698 11.888 39.1098 14.16 41.8938 14.16ZM41.8778 12.448C40.3098 12.448 39.5898 10.928 39.5898 8.4C39.5898 5.872 40.3098 4.352 41.8778 4.352H41.9098C43.4778 4.352 44.1978 5.872 44.1978 8.4C44.1978 10.928 43.4778 12.448 41.9098 12.448H41.8778Z" fill="white"/>
</svg>
